<svg xmlns="http://www.w3.org/2000/svg"  viewBox="0 0 50 50" width="50px" height="50px"><path d="M 25 0 C 15.721932 0 9.3463444 7.1293393 9.0292969 15.361328 L 5.3320312 14.056641 C 5.0260312 13.949641 4.685875 13.995594 4.421875 14.183594 C 4.156875 14.370594 4 14.676 4 15 C 4 23.661 6.936625 27.382078 8.015625 28.455078 C 8.158625 30.599078 9.319 34 13 34 L 13.115234 34 L 11.822266 31.736328 C 10.047266 30.876328 10.001 28.136 10 28 C 10 27.693 9.8504219 27.396031 9.6074219 27.207031 C 9.5734219 27.180031 6.3702969 24.565828 6.0292969 16.423828 L 9.109375 17.511719 C 9.3647575 19.314269 10.06252 20.478533 10.859375 21.142578 C 11.257128 21.474039 11.660406 21.654496 12.021484 21.779297 C 12.029883 22.245601 12.144194 22.68672 12.330078 23.095703 C 12.686651 23.880208 13.305967 24.650203 14.220703 24.904297 C 14.393288 25.675977 14.678262 26.489811 15.142578 27.263672 C 16.023724 28.732249 17.666667 30 20 30 C 20.050127 30 20.096914 29.99015 20.146484 29.988281 C 20.056728 30.283078 20 30.619496 20 31 C 20 31.378321 20.055334 31.708853 20.142578 32 L 16.580078 32 L 12.869141 25.503906 A 1.0001 1.0001 0 0 0 11.958984 24.988281 A 1.0001 1.0001 0 0 0 11.130859 26.496094 L 15.130859 33.496094 A 1.0001 1.0001 0 0 0 16 34 L 21.273438 34 C 21.379821 34.352738 21.537931 34.81219 21.855469 35.447266 C 21.887258 35.510844 21.931083 35.574673 21.964844 35.638672 C 21.051902 35.350544 20.20107 35 19 35 C 18 35 18 35.895 18 37 C 18 38.105 18 39 19 39 C 21 39 22 38 24 38 L 25 38 L 26 38 C 28 38 29 39 31 39 C 32 39 32 38.105 32 37 C 32 35.895 32 35 31 35 C 29.79893 35 28.948098 35.350544 28.035156 35.638672 C 28.068917 35.574673 28.112742 35.510844 28.144531 35.447266 C 28.462069 34.81219 28.620179 34.352738 28.726562 34 L 34 34 A 1.0001 1.0001 0 0 0 34.869141 33.496094 L 38.869141 26.496094 A 1.0001 1.0001 0 0 0 38.011719 24.988281 A 1.0001 1.0001 0 0 0 37.130859 25.503906 L 33.419922 32 L 29.857422 32 C 29.944666 31.708853 30 31.378321 30 31 C 30 30.619496 29.943272 30.283078 29.853516 29.988281 C 29.903086 29.99015 29.949873 30 30 30 C 32.333333 30 33.976276 28.732249 34.857422 27.263672 C 35.321348 26.490462 35.606656 25.677359 35.779297 24.90625 C 36.708765 24.653559 37.352959 23.880112 37.703125 23.085938 C 37.880225 22.684273 37.985782 22.252845 37.992188 21.800781 C 38.345655 21.687806 38.734498 21.526757 39.121094 21.220703 C 39.949604 20.564798 40.665375 19.376915 40.90625 17.505859 L 43.970703 16.423828 C 43.630703 24.565828 40.426391 27.179219 40.400391 27.199219 C 40.148391 27.388219 40 27.686 40 28 C 40 28.138 39.968828 30.888187 38.173828 31.742188 L 36.882812 34 L 37 34 C 40.681 34 41.841375 30.599078 41.984375 28.455078 C 43.062375 27.382078 46 23.661 46 15 C 46 14.676 45.842172 14.370594 45.576172 14.183594 C 45.311172 13.995594 44.972969 13.949641 44.667969 14.056641 L 40.964844 15.363281 C 40.590048 7.1760629 34.241073 0 25 0 z M 25 2 C 33.472222 2 39 8.625 39 16.125 C 39 18.425 38.361142 19.272527 37.878906 19.654297 C 37.532925 19.928199 37.306853 19.973 37.175781 19.984375 C 37.167539 19.978089 37.162674 19.969065 37.154297 19.962891 A 1.0001 1.0001 0 0 0 37.154297 19.960938 C 35.846855 18.998584 34.024168 18.279744 31.982422 17.789062 C 32.711748 16.948266 33 15.80803 33 14.5 C 33 10.329995 29.617555 6 25 6 C 20.382445 6 17 10.329995 17 14.5 C 17 15.80803 17.288252 16.948266 18.017578 17.789062 C 15.975757 18.27971 14.15282 18.998388 12.845703 19.960938 A 1.0001 1.0001 0 0 0 12.845703 19.962891 C 12.841895 19.965697 12.839717 19.969826 12.835938 19.972656 C 12.691154 19.947859 12.470104 19.881991 12.140625 19.607422 C 11.642501 19.192318 11 18.3 11 16 C 11 8.5 16.518519 2 25 2 z M 25 8 C 28.308445 8 31 11.452005 31 14.5 C 31 15.572223 30.781596 16.158129 30.439453 16.523438 C 30.12943 16.854451 29.591887 17.100351 28.6875 17.214844 C 27.465231 17.074296 26.221502 17 25 17 C 23.777841 17 22.533506 17.074174 21.310547 17.214844 C 20.407376 17.100232 19.870345 16.854211 19.560547 16.523438 C 19.218404 16.158129 19 15.572223 19 14.5 C 19 11.452005 21.691555 8 25 8 z M 23 10 L 23 16 L 25 16 L 25 12 L 28 12 L 28 10 L 23 10 z M 25 19 C 29.230963 19 34.006712 20.130366 35.966797 21.572266 C 35.976497 21.579366 35.987407 21.563866 35.998047 21.691406 C 36.008687 21.818996 35.972727 22.05323 35.873047 22.279297 C 35.673693 22.73143 35.278706 23 35.142578 23 L 29.117188 23 A 1.0001 1.0001 0 0 0 29.003906 22.994141 A 1.0001 1.0001 0 0 0 28.904297 23 L 25 23 L 21.09375 23 A 1.0001 1.0001 0 0 0 20.964844 22.994141 A 1.0001 1.0001 0 0 0 20.890625 23 L 16 23 L 14.857422 23 C 14.792692 23 14.360312 22.729453 14.150391 22.267578 C 14.04543 22.036641 14.005412 21.799575 14.013672 21.673828 C 14.021972 21.548081 14.028083 21.576038 14.033203 21.572266 C 15.991961 20.130726 20.769037 19 25 19 z M 16.337891 25 L 19 25 A 1 1 0 0 0 20 26 A 1 1 0 0 0 20.992188 25.115234 L 22.71875 25.978516 C 22.395405 26.285966 22.129515 26.627994 21.917969 26.945312 C 21.758941 27.183854 21.642616 27.390815 21.542969 27.582031 L 21.533203 27.5625 C 21.033306 27.801656 20.381539 28 20 28 C 18.333333 28 17.476276 27.267751 16.857422 26.236328 C 16.629397 25.856287 16.469746 25.428461 16.337891 25 z M 31 25 L 33.662109 25 C 33.530254 25.428461 33.370603 25.856287 33.142578 26.236328 C 32.523724 27.267751 31.666667 28 30 28 C 29.618461 28 28.966694 27.801656 28.466797 27.5625 L 28.457031 27.582031 C 28.357384 27.390815 28.241059 27.183854 28.082031 26.945312 C 27.870268 26.627667 27.603094 26.286211 27.279297 25.978516 L 29.007812 25.113281 A 1 1 0 0 0 30 26 A 1 1 0 0 0 31 25 z M 25 27 C 25.5 27 26.003307 27.432695 26.417969 28.054688 C 26.83263 28.676679 27.050781 29.316406 27.050781 29.316406 A 1.0001 1.0001 0 0 0 27.373047 29.779297 C 27.373047 29.779297 28 30.359948 28 31 C 28 31.616357 27.43953 32.152648 27.396484 32.193359 A 1.0001 1.0001 0 0 0 26.996094 32.867188 C 26.955587 33.018698 26.75332 33.757032 26.355469 34.552734 C 26.135283 34.993106 25.862618 35.41082 25.605469 35.667969 C 25.34832 35.925118 25.166667 36 25 36 C 24.833333 36 24.65168 35.92512 24.394531 35.667969 C 24.137382 35.41082 23.864717 34.993106 23.644531 34.552734 C 23.248977 33.761625 23.048295 33.031367 23.005859 32.873047 A 1.0001 1.0001 0 0 0 22.605469 32.193359 C 22.56382 32.153999 22 31.617188 22 31 C 22 30.359948 22.626953 29.779297 22.626953 29.779297 A 1.0001 1.0001 0 0 0 22.949219 29.316406 C 22.949219 29.316406 23.16737 28.676679 23.582031 28.054688 C 23.996693 27.432694 24.5 27 25 27 z M 14.001953 35.212891 L 14.001953 36 C 13.980953 38.129 13.938469 42.499563 19.230469 43.851562 L 21.052734 49.316406 C 21.188734 49.724406 21.569 50 22 50 L 25 50 L 28 50 C 28.431 50 28.812266 49.725406 28.947266 49.316406 L 30.769531 43.849609 C 36.062531 42.498609 36.021 38.129 36 36 L 36 35.212891 C 35.456 35.702891 34.752 36 34 36 L 34 36.009766 C 34.026 38.729766 33.725687 41.235531 29.804688 42.019531 C 29.452687 42.089531 29.165734 42.343594 29.052734 42.683594 L 27.279297 48 L 25 48 L 22.720703 48 L 20.949219 42.683594 C 20.836219 42.343594 20.549266 42.089531 20.197266 42.019531 C 16.276266 41.235531 15.974953 38.729766 16.001953 36.009766 L 16.001953 36 C 15.249953 36 14.545953 35.702891 14.001953 35.212891 z"/></svg>